# xmcd
#
# Track frame offsets: 
#        150
#        11710
#        25012
#        38700
#        58217
#        70485
#        86102
#        104850
#        116252
#        151102
#        166172
#
# Disc length: 2364 seconds
#
# Revision: 0
# Processed by: cddbd v1.5.2PL0 Copyright (c) Steve Scherf et al.
# Submitted via: ExactAudioCopy v1.0b1
#
DISCID=8b093a0b
DTITLE=The Boys in the Band - Pretty Blue
DYEAR=1988
DGENRE=Blues
TTITLE0=The Fly
TTITLE1=Goin' home
TTITLE2=One way out
TTITLE3=Your love is all
TTITLE4=You make a fool of yourself
TTITLE5=Checkin' up on my babe
TTITLE6=No time for love
TTITLE7=Second P. Harp boogie
TTITLE8=The blues
TTITLE9=Little girl
TTITLE10=Don't hit me
EXTD=
EXTT0=
EXTT1=
EXTT2=
EXTT3=
EXTT4=
EXTT5=
EXTT6=
EXTT7=
EXTT8=
EXTT9=
EXTT10=
PLAYORDER=
